<svg xmlns="http://www.w3.org/2000/svg" viewBox="0 0 32 32"><defs><style>.cls-1{fill:none;}</style></defs><g id="Capa_2" data-name="Capa 2"><g id="icons"><g id="Planning"><g id="Weather"><path d="M13.5,5.41a15.08,15.08,0,0,0,11.6,18.2,11.16,11.16,0,0,1-8,3.39H16.7A11.1,11.1,0,0,1,13.5,5.41M15,3l-.17,0A13.1,13.1,0,0,0,4,16.59,13.24,13.24,0,0,0,16.63,29h.49a13.06,13.06,0,0,0,10.7-5.56A1,1,0,0,0,27,21.88,13.07,13.07,0,0,1,15.89,4.38,1,1,0,0,0,15,3Z"/><rect id="_Transparent_Rectangle_" data-name="&lt;Transparent Rectangle&gt;" class="cls-1" width="32" height="32"/></g></g></g></g></svg>