<svg xmlns="http://www.w3.org/2000/svg" viewBox="0 0 32 32"><defs><style>.cls-1{fill:none;}</style></defs><g id="Capa_2" data-name="Capa 2"><g id="icons"><g id="Planning"><g id="Weather"><rect id="_Transparent_Rectangle_" data-name="&lt;Transparent Rectangle&gt;" class="cls-1" width="32" height="32"/><path d="M30,19a5,5,0,0,0-3.21-4.66,7,7,0,0,0-13-1.44,13.16,13.16,0,0,1,.13-8.52A1,1,0,0,0,13,3a.47.47,0,0,0-.17,0A13.1,13.1,0,0,0,2,16.58,13.24,13.24,0,0,0,14.63,29h.49a13,13,0,0,0,10.29-5A5,5,0,0,0,30,19ZM14.7,27A11.1,11.1,0,0,1,11.5,5.41a15.18,15.18,0,0,0,.85,9.37A5,5,0,0,0,15,24h7.68a11.1,11.1,0,0,1-7.56,3ZM25,22H15a3,3,0,0,1-.7-5.91l.66-.16.1-.67a5,5,0,0,1,9.88,0l.1.66.66.16A3,3,0,0,1,25,22Z"/></g></g></g></g></svg>