<svg xmlns="http://www.w3.org/2000/svg" viewBox="0 0 32 32"><defs><style>.cls-1{fill:none;}</style></defs><g id="Capa_2" data-name="Capa 2"><g id="icons"><g id="Planning"><g id="Weather"><path d="M24.8,9.14a9,9,0,0,0-17.6,0A6.49,6.49,0,0,0,6,21.5V19.24A4.5,4.5,0,0,1,8.14,11L9,11l.1-.82a7,7,0,0,1,13.88,0L23,11l.82.06A4.5,4.5,0,0,1,26,19.24V21.5A6.49,6.49,0,0,0,24.8,9.14Z"/><rect id="_Transparent_Rectangle_" data-name="&lt;Transparent Rectangle&gt;" class="cls-1" width="32" height="32"/><rect x="4" y="26" width="2" height="2"/><rect x="6" y="28" width="2" height="2"/><rect x="8" y="30" width="2" height="2"/><rect x="8" y="26" width="2" height="2"/><rect x="4" y="30" width="2" height="2"/><rect x="8" y="18" width="2" height="2"/><rect x="10" y="20" width="2" height="2"/><rect x="12" y="22" width="2" height="2"/><rect x="12" y="18" width="2" height="2"/><rect x="8" y="22" width="2" height="2"/><rect x="18" y="18" width="2" height="2"/><rect x="20" y="20" width="2" height="2"/><rect x="22" y="22" width="2" height="2"/><rect x="22" y="18" width="2" height="2"/><rect x="18" y="22" width="2" height="2"/><rect x="14" y="26" width="2" height="2"/><rect x="16" y="28" width="2" height="2"/><rect x="18" y="30" width="2" height="2"/><rect x="18" y="26" width="2" height="2"/><rect x="14" y="30" width="2" height="2"/></g></g></g></g></svg>