<svg xmlns="http://www.w3.org/2000/svg" viewBox="0 0 32 32"><defs><style>.cls-1{fill:none;}</style></defs><g id="Capa_2" data-name="Capa 2"><g id="icons"><g id="Planning"><g id="Weather"><path d="M23.5,22H8.5A6.5,6.5,0,0,1,7.2,9.14a9,9,0,0,1,17.6,0A6.5,6.5,0,0,1,23.5,22ZM16,4a7,7,0,0,0-6.94,6.14L9,11,8.14,11a4.5,4.5,0,0,0,.36,9h15a4.5,4.5,0,0,0,.36-9L23,11l-.1-.82A7,7,0,0,0,16,4Z"/><rect id="_Transparent_Rectangle_" data-name="&lt;Transparent Rectangle&gt;" class="cls-1" width="32" height="32"/><rect x="4" y="24" width="2" height="2"/><rect x="6" y="26" width="2" height="2"/><rect x="8" y="28" width="2" height="2"/><rect x="8" y="24" width="2" height="2"/><rect x="4" y="28" width="2" height="2"/><rect x="22" y="24" width="2" height="2"/><rect x="24" y="26" width="2" height="2"/><rect x="26" y="28" width="2" height="2"/><rect x="26" y="24" width="2" height="2"/><rect x="22" y="28" width="2" height="2"/><rect x="13" y="26" width="2" height="2"/><rect x="15" y="28" width="2" height="2"/><rect x="17" y="30" width="2" height="2"/><rect x="17" y="26" width="2" height="2"/><rect x="13" y="30" width="2" height="2"/></g></g></g></g></svg>